<svg id="Layer_1" data-name="Layer 1" xmlns="http://www.w3.org/2000/svg" viewBox="0 0 1194.01 810"><defs><style>.cls-1{fill:#333;}</style></defs><path class="cls-1" d="M742.87,762.47c26.72-32.85,47-77.53,81.43-96.25C913.62,617.64,971.93,553,990.4,444.05c-28.85-1.94-49.55-5.27-70.07-4.4-134.34,5.73-223.1-45.53-251.5-146.38C640.16,191.43,694.57,79.53,796.92,29.84c114.43-55.55,232.27-32.46,307.3,60.22,140.37,173.39,114.12,455.73-64.5,587.49-76.29,56.28-170,89-255.78,132.45Z"/><path class="cls-1" d="M329.72,439.64c-31.32,0-52.09-.63-72.83.11-134.21,4.8-223.23-47.92-250-148.45C-20.34,189.36,35.5,77.63,137.92,29,253-25.65,369.71-1.7,444.4,91.91c155,194.24,105.1,482.48-112.46,618.31-65.61,41-142.42,64.07-219.66,97.78-23.51-78.76-18.64-119.92,51-146.5C257.66,625.51,312,551.9,329.72,439.64Z"/></svg>